<svg width="1440" height="900" viewBox="0 0 1440 900" fill="none" xmlns="http://www.w3.org/2000/svg">
<mask id="mask0_3_39" style="mask-type:alpha" maskUnits="userSpaceOnUse" x="0" y="0" width="1440" height="900">
<rect width="1440" height="900" fill="#FCFBE9"/>
</mask>
<g mask="url(#mask0_3_39)">
<path d="M1657 238.5C1657 385.132 1538.13 504 1391.5 504C1244.87 504 1126 385.132 1126 238.5L1126 -48L1657 -48.0001L1657 238.5Z" fill="url(#paint0_linear_3_39)"/>
<rect x="0.5" y="0.5" width="1439" height="899" fill="#EEDDCC" stroke="#EEDDCC"/>
<rect opacity="0.34" x="1015" width="425" height="529" fill="url(#paint1_linear_3_39)"/>
<rect opacity="0.34" x="-51" y="651" width="263" height="249" fill="url(#paint2_linear_3_39)"/>
<path opacity="0.6" d="M1 876.655C45.9624 876.655 45.9624 896 90.9375 896C135.9 896 135.9 876.655 180.875 876.655C225.837 876.655 225.837 896 270.813 896C315.775 896 315.775 876.655 360.737 876.655C405.7 876.655 405.7 896 450.662 896C495.625 896 495.625 876.655 540.6 876.655C585.562 876.655 585.562 896 630.537 896C675.512 896 675.512 876.655 720.475 876.655C765.437 876.655 765.437 896 810.412 896C855.387 896 855.387 876.655 900.35 876.655C945.325 876.655 945.325 896 990.287 896C1035.25 896 1035.25 876.655 1080.22 876.655C1125.2 876.655 1125.2 896 1170.16 896C1215.14 896 1215.14 876.655 1260.1 876.655C1305.07 876.655 1305.07 896 1350.05 896C1395.02 896 1395.02 876.655 1440 876.655M1 836.582C45.9624 836.582 45.9624 855.927 90.9375 855.927C135.9 855.927 135.9 836.582 180.875 836.582C225.837 836.582 225.837 855.927 270.813 855.927C315.775 855.927 315.775 836.582 360.737 836.582C405.7 836.582 405.7 855.927 450.662 855.927C495.625 855.927 495.625 836.582 540.6 836.582C585.562 836.582 585.562 855.927 630.537 855.927C675.512 855.927 675.512 836.582 720.475 836.582C765.437 836.582 765.437 855.927 810.412 855.927C855.387 855.927 855.387 836.582 900.35 836.582C945.325 836.582 945.325 855.927 990.287 855.927C1035.25 855.927 1035.25 836.582 1080.22 836.582C1125.2 836.582 1125.2 855.927 1170.16 855.927C1215.14 855.927 1215.14 836.582 1260.1 836.582C1305.07 836.582 1305.07 855.927 1350.05 855.927C1395.02 855.927 1395.02 836.582 1440 836.582M1 796.509C45.9624 796.509 45.9624 815.855 90.9375 815.855C135.9 815.855 135.9 796.509 180.875 796.509C225.837 796.509 225.837 815.855 270.813 815.855C315.775 815.855 315.775 796.509 360.737 796.509C405.7 796.509 405.7 815.855 450.662 815.855C495.625 815.855 495.625 796.509 540.6 796.509C585.562 796.509 585.562 815.855 630.537 815.855C675.512 815.855 675.512 796.509 720.475 796.509C765.437 796.509 765.437 815.855 810.412 815.855C855.387 815.855 855.387 796.509 900.35 796.509C945.325 796.509 945.325 815.855 990.287 815.855C1035.25 815.855 1035.25 796.509 1080.22 796.509C1125.2 796.509 1125.2 815.855 1170.16 815.855C1215.14 815.855 1215.14 796.509 1260.1 796.509C1305.07 796.509 1305.07 815.855 1350.05 815.855C1395.02 815.855 1395.02 796.509 1440 796.509M1 756.436C45.9624 756.436 45.9624 775.782 90.9375 775.782C135.9 775.782 135.9 756.436 180.875 756.436C225.837 756.436 225.837 775.782 270.813 775.782C315.775 775.782 315.775 756.436 360.737 756.436C405.7 756.436 405.7 775.782 450.662 775.782C495.625 775.782 495.625 756.436 540.6 756.436C585.562 756.436 585.562 775.782 630.537 775.782C675.512 775.782 675.512 756.436 720.475 756.436C765.437 756.436 765.437 775.782 810.412 775.782C855.387 775.782 855.387 756.436 900.35 756.436C945.325 756.436 945.325 775.782 990.287 775.782C1035.25 775.782 1035.25 756.436 1080.22 756.436C1125.2 756.436 1125.2 775.782 1170.16 775.782C1215.14 775.782 1215.14 756.436 1260.1 756.436C1305.07 756.436 1305.07 775.782 1350.05 775.782C1395.02 775.782 1395.02 756.436 1440 756.436M1 716.364C45.9624 716.364 45.9624 735.709 90.9375 735.709C135.9 735.709 135.9 716.364 180.875 716.364C225.837 716.364 225.837 735.709 270.813 735.709C315.775 735.709 315.775 716.364 360.737 716.364C405.7 716.364 405.7 735.709 450.662 735.709C495.625 735.709 495.625 716.364 540.6 716.364C585.562 716.364 585.562 735.709 630.537 735.709C675.512 735.709 675.512 716.364 720.475 716.364C765.437 716.364 765.437 735.709 810.412 735.709C855.387 735.709 855.387 716.364 900.35 716.364C945.325 716.364 945.325 735.709 990.287 735.709C1035.25 735.709 1035.25 716.364 1080.22 716.364C1125.2 716.364 1125.2 735.709 1170.16 735.709C1215.14 735.709 1215.14 716.364 1260.1 716.364C1305.07 716.364 1305.07 735.709 1350.05 735.709C1395.02 735.709 1395.02 716.364 1440 716.364M1 676.291C45.9624 676.291 45.9624 695.636 90.9375 695.636C135.9 695.636 135.9 676.291 180.875 676.291C225.837 676.291 225.837 695.636 270.813 695.636C315.775 695.636 315.775 676.291 360.737 676.291C405.7 676.291 405.7 695.636 450.662 695.636C495.625 695.636 495.625 676.291 540.6 676.291C585.562 676.291 585.562 695.636 630.537 695.636C675.512 695.636 675.512 676.291 720.475 676.291C765.437 676.291 765.437 695.636 810.412 695.636C855.387 695.636 855.387 676.291 900.35 676.291C945.325 676.291 945.325 695.636 990.287 695.636C1035.25 695.636 1035.25 676.291 1080.22 676.291C1125.2 676.291 1125.2 695.636 1170.16 695.636C1215.14 695.636 1215.14 676.291 1260.1 676.291C1305.07 676.291 1305.07 695.636 1350.05 695.636C1395.02 695.636 1395.02 676.291 1440 676.291M1 636.218C45.9624 636.218 45.9624 655.564 90.9375 655.564C135.9 655.564 135.9 636.218 180.875 636.218C225.837 636.218 225.837 655.564 270.813 655.564C315.775 655.564 315.775 636.218 360.737 636.218C405.7 636.218 405.7 655.564 450.662 655.564C495.625 655.564 495.625 636.218 540.6 636.218C585.562 636.218 585.562 655.564 630.537 655.564C675.512 655.564 675.512 636.218 720.475 636.218C765.437 636.218 765.437 655.564 810.412 655.564C855.387 655.564 855.387 636.218 900.35 636.218C945.325 636.218 945.325 655.564 990.287 655.564C1035.25 655.564 1035.25 636.218 1080.22 636.218C1125.2 636.218 1125.2 655.564 1170.16 655.564C1215.14 655.564 1215.14 636.218 1260.1 636.218C1305.07 636.218 1305.07 655.564 1350.05 655.564C1395.02 655.564 1395.02 636.218 1440 636.218M1 596.145C45.9624 596.145 45.9624 615.491 90.9375 615.491C135.9 615.491 135.9 596.145 180.875 596.145C225.837 596.145 225.837 615.491 270.813 615.491C315.775 615.491 315.775 596.145 360.737 596.145C405.7 596.145 405.7 615.491 450.662 615.491C495.625 615.491 495.625 596.145 540.6 596.145C585.562 596.145 585.562 615.491 630.537 615.491C675.512 615.491 675.512 596.145 720.475 596.145C765.437 596.145 765.437 615.491 810.412 615.491C855.387 615.491 855.387 596.145 900.35 596.145C945.325 596.145 945.325 615.491 990.287 615.491C1035.25 615.491 1035.25 596.145 1080.22 596.145C1125.2 596.145 1125.2 615.491 1170.16 615.491C1215.14 615.491 1215.14 596.145 1260.1 596.145C1305.07 596.145 1305.07 615.491 1350.05 615.491C1395.02 615.491 1395.02 596.145 1440 596.145M1 556.073C45.9624 556.073 45.9624 575.418 90.9375 575.418C135.9 575.418 135.9 556.073 180.875 556.073C225.837 556.073 225.837 575.418 270.813 575.418C315.775 575.418 315.775 556.073 360.737 556.073C405.7 556.073 405.7 575.418 450.662 575.418C495.625 575.418 495.625 556.073 540.6 556.073C585.562 556.073 585.562 575.418 630.537 575.418C675.512 575.418 675.512 556.073 720.475 556.073C765.437 556.073 765.437 575.418 810.412 575.418C855.387 575.418 855.387 556.073 900.35 556.073C945.325 556.073 945.325 575.418 990.287 575.418C1035.25 575.418 1035.25 556.073 1080.22 556.073C1125.2 556.073 1125.2 575.418 1170.16 575.418C1215.14 575.418 1215.14 556.073 1260.1 556.073C1305.07 556.073 1305.07 575.418 1350.05 575.418C1395.02 575.418 1395.02 556.073 1440 556.073M1 516C45.9624 516 45.9624 535.345 90.9375 535.345C135.9 535.345 135.9 516 180.875 516C225.837 516 225.837 535.345 270.813 535.345C315.775 535.345 315.775 516 360.737 516C405.7 516 405.7 535.345 450.662 535.345C495.625 535.345 495.625 516 540.6 516C585.562 516 585.562 535.345 630.537 535.345C675.512 535.345 675.512 516 720.475 516C765.437 516 765.437 535.345 810.412 535.345C855.387 535.345 855.387 516 900.35 516C945.325 516 945.325 535.345 990.287 535.345C1035.25 535.345 1035.25 516 1080.22 516C1125.2 516 1125.2 535.345 1170.16 535.345C1215.14 535.345 1215.14 516 1260.1 516C1305.07 516 1305.07 535.345 1350.05 535.345C1395.02 535.345 1395.02 516 1440 516" stroke="url(#paint3_linear_3_39)" stroke-miterlimit="10"/>
<path d="M-23.0427 158L-26 160.965M-23.0427 178.259L-26 181.224M-23.0427 198.518L-26 201.482M-23.0427 218.776L-26 221.741M-23.0427 239.035L-26 242M-2.83412 158L-5.79147 160.965M-2.83412 178.259L-5.79147 181.224M-2.83412 198.518L-5.79147 201.482M-2.83412 218.776L-5.79147 221.741M-2.83412 239.035L-5.79147 242M17.3744 158L14.4171 160.965M17.3744 178.259L14.4171 181.224M17.3744 198.518L14.4171 201.482M17.3744 218.776L14.4171 221.741M17.3744 239.035L14.4171 242M37.5829 158L34.6256 160.965M37.5829 178.259L34.6256 181.224M37.5829 198.518L34.6256 201.482M37.5829 218.776L34.6256 221.741M37.5829 239.035L34.6256 242M57.7915 158L54.8341 160.965M57.7915 178.259L54.8341 181.224M57.7915 198.518L54.8341 201.482M57.7915 218.776L54.8341 221.741M57.7915 239.035L54.8341 242M78 158L75.0427 160.965M78 178.259L75.0427 181.224M78 198.518L75.0427 201.482M78 218.776L75.0427 221.741M78 239.035L75.0427 242" stroke="#34251F" stroke-width="2"/>
</g>
<defs>
<linearGradient id="paint0_linear_3_39" x1="1391.5" y1="504" x2="1391.5" y2="-48" gradientUnits="userSpaceOnUse">
<stop stop-color="#D7B798"/>
<stop offset="1" stop-color="#D7B798" stop-opacity="0"/>
</linearGradient>
<linearGradient id="paint1_linear_3_39" x1="1161.27" y1="641" x2="1161.27" y2="-84" gradientUnits="userSpaceOnUse">
<stop stop-color="#D3A17E"/>
<stop offset="1" stop-color="#D3A17E" stop-opacity="0"/>
</linearGradient>
<linearGradient id="paint2_linear_3_39" x1="39.513" y1="952.718" x2="39.513" y2="611.461" gradientUnits="userSpaceOnUse">
<stop stop-color="#D3A17E"/>
<stop offset="1" stop-color="#D3A17E" stop-opacity="0"/>
</linearGradient>
<linearGradient id="paint3_linear_3_39" x1="720.5" y1="906.5" x2="720.5" y2="544.5" gradientUnits="userSpaceOnUse">
<stop stop-color="#B27C64"/>
<stop offset="1" stop-color="#B27C64" stop-opacity="0"/>
</linearGradient>
</defs>
</svg>
