<svg width="37" height="36" viewBox="0 0 37 36" fill="none" xmlns="http://www.w3.org/2000/svg">
<path d="M5.5 6.83325L1.25 12.4999V32.3333C1.25 33.0847 1.54851 33.8054 2.07986 34.3367C2.61122 34.8681 3.33189 35.1666 4.08333 35.1666H23.9167C24.6681 35.1666 25.3888 34.8681 25.9201 34.3367C26.4515 33.8054 26.75 33.0847 26.75 32.3333V12.4999L22.5 6.83325H5.5Z" stroke="#34251F" stroke-linecap="round" stroke-linejoin="round"/>
<path d="M1.25 12.5H26.75" stroke="#34251F" stroke-linecap="round" stroke-linejoin="round"/>
<path d="M19.6666 18.1667C19.6666 19.6696 19.0696 21.111 18.0069 22.1737C16.9442 23.2364 15.5029 23.8334 14 23.8334C12.4971 23.8334 11.0557 23.2364 9.99304 22.1737C8.93033 21.111 8.33331 19.6696 8.33331 18.1667" stroke="#34251F" stroke-linecap="round" stroke-linejoin="round"/>
<circle cx="29" cy="8" r="8" fill="#C20A0A"/>
<path d="M27.5053 10.0782H28.6842V7.0535C28.6842 6.90535 28.6884 6.75034 28.6968 6.58848L28.0021 7.15226C27.9572 7.18793 27.9123 7.21399 27.8674 7.23045C27.8225 7.24417 27.7789 7.25103 27.7368 7.25103C27.6639 7.25103 27.5979 7.23594 27.5389 7.20576C27.4828 7.17284 27.4407 7.13855 27.4126 7.10288L27 6.5679L28.9116 5H29.9895V10.0782H31V11H27.5053V10.0782Z" fill="white"/>
</svg>
