<svg width="73" height="18" viewBox="0 0 73 18" fill="none" xmlns="http://www.w3.org/2000/svg">
<path d="M10.638 0.972875V3.83288H4.06001V7.89187H9.53801V10.7629H4.06001V16.9999H0.320007V0.972875H10.638Z" fill="#34251F"/>
<path d="M16.6361 16.9999H12.8961V0.972875H16.6361V16.9999Z" fill="#34251F"/>
<path d="M29.931 0.972875V3.83288H23.353V7.89187H28.831V10.7629H23.353V16.9999H19.613V0.972875H29.931Z" fill="#34251F"/>
<path d="M45.0134 16.9999H42.1314C41.8087 16.9999 41.541 16.9265 41.3284 16.7799C41.123 16.6259 40.98 16.4315 40.8994 16.1969L39.9534 13.4029H33.8594L32.9134 16.1969C32.84 16.4022 32.697 16.5892 32.4844 16.7579C32.2717 16.9192 32.0114 16.9999 31.7034 16.9999H28.7994L35.0034 0.972875H38.8094L45.0134 16.9999ZM34.7174 10.8729H39.0954L37.6214 6.48387C37.526 6.20521 37.4124 5.87888 37.2804 5.50487C37.1557 5.12354 37.031 4.71287 36.9064 4.27287C36.789 4.72021 36.668 5.13454 36.5434 5.51588C36.4187 5.89721 36.3014 6.22721 36.1914 6.50588L34.7174 10.8729Z" fill="#34251F"/>
<path d="M55.2501 4.22888C55.1401 4.40488 55.0227 4.53688 54.8981 4.62488C54.7807 4.71288 54.6267 4.75688 54.4361 4.75688C54.2674 4.75688 54.0841 4.70554 53.8861 4.60287C53.6954 4.49287 53.4754 4.37187 53.2261 4.23987C52.9841 4.10787 52.7054 3.99054 52.3901 3.88788C52.0747 3.77788 51.7154 3.72288 51.3121 3.72288C50.6154 3.72288 50.0947 3.87321 49.7501 4.17388C49.4127 4.46721 49.2441 4.86687 49.2441 5.37287C49.2441 5.69554 49.3467 5.96321 49.5521 6.17588C49.7574 6.38854 50.0251 6.57188 50.3551 6.72588C50.6924 6.87988 51.0737 7.02288 51.4991 7.15488C51.9317 7.27954 52.3717 7.42254 52.8191 7.58388C53.2664 7.73788 53.7027 7.92121 54.1281 8.13388C54.5607 8.34654 54.9421 8.61787 55.2721 8.94787C55.6094 9.27787 55.8807 9.68121 56.0861 10.1579C56.2914 10.6272 56.3941 11.1955 56.3941 11.8629C56.3941 12.6035 56.2657 13.2965 56.0091 13.9419C55.7524 14.5872 55.3784 15.1519 54.8871 15.6359C54.4031 16.1125 53.8017 16.4902 53.0831 16.7689C52.3717 17.0402 51.5614 17.1759 50.6521 17.1759C50.1534 17.1759 49.6437 17.1245 49.1231 17.0219C48.6097 16.9192 48.1111 16.7762 47.6271 16.5929C47.1431 16.4022 46.6884 16.1785 46.2631 15.9219C45.8377 15.6652 45.4674 15.3792 45.1521 15.0639L46.2521 13.3259C46.3327 13.1939 46.4464 13.0875 46.5931 13.0069C46.7397 12.9262 46.8974 12.8859 47.0661 12.8859C47.2861 12.8859 47.5061 12.9555 47.7261 13.0949C47.9534 13.2342 48.2064 13.3882 48.4851 13.5569C48.7711 13.7255 49.0974 13.8795 49.4641 14.0189C49.8307 14.1582 50.2634 14.2279 50.7621 14.2279C51.4367 14.2279 51.9611 14.0812 52.3351 13.7879C52.7091 13.4872 52.8961 13.0142 52.8961 12.3689C52.8961 11.9949 52.7934 11.6905 52.5881 11.4559C52.3827 11.2212 52.1114 11.0269 51.7741 10.8729C51.4441 10.7189 51.0664 10.5832 50.6411 10.4659C50.2157 10.3485 49.7794 10.2202 49.3321 10.0809C48.8847 9.93421 48.4484 9.75821 48.0231 9.55288C47.5977 9.34021 47.2164 9.06521 46.8791 8.72788C46.5491 8.38321 46.2814 7.95788 46.0761 7.45188C45.8707 6.93854 45.7681 6.30788 45.7681 5.55988C45.7681 4.95854 45.8891 4.37187 46.1311 3.79987C46.3731 3.22787 46.7287 2.71821 47.1981 2.27087C47.6674 1.82354 48.2431 1.46787 48.9251 1.20387C49.6071 0.932541 50.3881 0.796875 51.2681 0.796875C51.7594 0.796875 52.2361 0.837208 52.6981 0.917875C53.1674 0.991209 53.6111 1.10488 54.0291 1.25887C54.4471 1.40554 54.8357 1.58521 55.1951 1.79787C55.5617 2.00321 55.8881 2.23787 56.1741 2.50187L55.2501 4.22888Z" fill="#34251F"/>
<path d="M72.2339 16.9999H68.4939V10.2239H61.9819V16.9999H58.2419V0.972875H61.9819V7.67187H68.4939V0.972875H72.2339V16.9999Z" fill="#34251F"/>
</svg>
